<svg width="1024" height="84" viewBox="0 0 1024 84" fill="none" xmlns="http://www.w3.org/2000/svg">
<rect x="0.5" y="0.5" width="1023" height="83" rx="7.5" fill="white" stroke="#E6E6E6"/>
<circle cx="34" cy="42" r="2" fill="#666666"/>
<rect x="91.5" y="22.5" width="145" height="39" rx="3.5" fill="white" stroke="#E6E6E6"/>
<path d="M103.916 46.0977L107.293 42.543C107.735 42.069 108.072 41.6885 108.305 41.4014C108.542 41.1097 108.722 40.8294 108.845 40.5605C108.968 40.2917 109.029 40.0091 109.029 39.7129C109.029 39.3802 108.943 39.0885 108.77 38.8379C108.596 38.5827 108.359 38.3844 108.059 38.2432C107.762 38.1019 107.43 38.0312 107.061 38.0312C106.673 38.0312 106.334 38.111 106.042 38.2705C105.75 38.4255 105.525 38.6419 105.365 38.9199C105.21 39.1979 105.133 39.5215 105.133 39.8906H103.971C103.966 39.3164 104.098 38.8083 104.367 38.3662C104.641 37.9242 105.017 37.5801 105.495 37.334C105.974 37.0879 106.509 36.9648 107.102 36.9648C107.689 36.9648 108.216 37.0856 108.681 37.3271C109.15 37.5687 109.517 37.8991 109.781 38.3184C110.046 38.7376 110.178 39.2025 110.178 39.7129C110.173 40.0911 110.103 40.4535 109.966 40.7998C109.834 41.1416 109.606 41.5221 109.282 41.9414C108.959 42.3607 108.501 42.8757 107.908 43.4863L105.639 45.8242V45.9062H110.355V47H103.93L103.916 46.0977ZM115.387 47.1367C114.658 47.1367 114.033 46.9385 113.514 46.542C112.999 46.1455 112.604 45.5667 112.331 44.8057C112.062 44.0446 111.928 43.1263 111.928 42.0508C111.928 40.9889 112.062 40.0775 112.331 39.3164C112.604 38.5508 113.001 37.9674 113.521 37.5664C114.04 37.1654 114.662 36.9648 115.387 36.9648C116.107 36.9648 116.727 37.1654 117.246 37.5664C117.766 37.9674 118.162 38.5508 118.436 39.3164C118.709 40.0775 118.846 40.9889 118.846 42.0508C118.846 43.1263 118.709 44.0446 118.436 44.8057C118.167 45.5667 117.772 46.1455 117.253 46.542C116.738 46.9385 116.116 47.1367 115.387 47.1367ZM113.117 42.0508C113.117 42.8984 113.206 43.6208 113.384 44.2178C113.566 44.8148 113.826 45.2682 114.163 45.5781C114.5 45.888 114.908 46.043 115.387 46.043C115.861 46.043 116.266 45.888 116.604 45.5781C116.945 45.2682 117.203 44.8148 117.376 44.2178C117.554 43.6208 117.643 42.8984 117.643 42.0508C117.643 41.2031 117.554 40.4785 117.376 39.877C117.198 39.2754 116.941 38.8174 116.604 38.5029C116.266 38.1885 115.861 38.0312 115.387 38.0312C114.913 38.0312 114.507 38.1885 114.17 38.5029C113.833 38.8174 113.573 39.2754 113.391 39.877C113.208 40.4785 113.117 41.2031 113.117 42.0508ZM120.473 46.0977L123.85 42.543C124.292 42.069 124.629 41.6885 124.861 41.4014C125.098 41.1097 125.278 40.8294 125.401 40.5605C125.524 40.2917 125.586 40.0091 125.586 39.7129C125.586 39.3802 125.499 39.0885 125.326 38.8379C125.153 38.5827 124.916 38.3844 124.615 38.2432C124.319 38.1019 123.986 38.0312 123.617 38.0312C123.23 38.0312 122.89 38.111 122.599 38.2705C122.307 38.4255 122.081 38.6419 121.922 38.9199C121.767 39.1979 121.689 39.5215 121.689 39.8906H120.527C120.523 39.3164 120.655 38.8083 120.924 38.3662C121.197 37.9242 121.573 37.5801 122.052 37.334C122.53 37.0879 123.066 36.9648 123.658 36.9648C124.246 36.9648 124.772 37.0856 125.237 37.3271C125.707 37.5687 126.074 37.8991 126.338 38.3184C126.602 38.7376 126.734 39.2025 126.734 39.7129C126.73 40.0911 126.659 40.4535 126.522 40.7998C126.39 41.1416 126.162 41.5221 125.839 41.9414C125.515 42.3607 125.057 42.8757 124.465 43.4863L122.195 45.8242V45.9062H126.912V47H120.486L120.473 46.0977ZM132.121 47.1367C131.469 47.1367 130.886 47.0273 130.371 46.8086C129.856 46.5898 129.448 46.2822 129.147 45.8857C128.851 45.4847 128.694 45.0267 128.676 44.5117H129.92C129.943 44.8216 130.052 45.0928 130.248 45.3252C130.444 45.5531 130.704 45.7308 131.027 45.8584C131.351 45.9814 131.711 46.043 132.107 46.043C132.54 46.043 132.928 45.9701 133.27 45.8242C133.611 45.6784 133.878 45.4733 134.069 45.209C134.265 44.9447 134.363 44.6439 134.363 44.3066C134.359 43.9466 134.263 43.6276 134.076 43.3496C133.889 43.0716 133.614 42.8551 133.249 42.7002C132.889 42.5407 132.458 42.4609 131.957 42.4609H131.15V41.3809H131.957C132.354 41.3809 132.707 41.3102 133.017 41.1689C133.326 41.0277 133.566 40.8294 133.734 40.5742C133.908 40.3145 133.994 40.0182 133.994 39.6855C133.994 39.3574 133.919 39.0703 133.769 38.8242C133.618 38.5736 133.404 38.3799 133.126 38.2432C132.848 38.1019 132.522 38.0312 132.148 38.0312C131.793 38.0358 131.458 38.1019 131.144 38.2295C130.834 38.3525 130.581 38.5326 130.385 38.7695C130.193 39.002 130.089 39.2754 130.07 39.5898H128.881C128.899 39.0794 129.056 38.626 129.353 38.2295C129.653 37.8285 130.05 37.5186 130.542 37.2998C131.039 37.0765 131.579 36.9648 132.162 36.9648C132.773 36.9648 133.306 37.0856 133.762 37.3271C134.222 37.5687 134.575 37.8923 134.821 38.2979C135.067 38.7035 135.188 39.1432 135.184 39.6172C135.188 40.1732 135.04 40.6494 134.739 41.0459C134.438 41.4378 134.026 41.709 133.502 41.8594V41.9277C133.926 41.9915 134.293 42.1328 134.603 42.3516C134.917 42.5658 135.156 42.8415 135.32 43.1787C135.484 43.5114 135.566 43.8874 135.566 44.3066C135.566 44.8398 135.416 45.3229 135.115 45.7559C134.819 46.1842 134.409 46.5215 133.885 46.7676C133.361 47.0137 132.773 47.1367 132.121 47.1367ZM137.877 47.082C137.717 47.082 137.569 47.041 137.433 46.959C137.3 46.877 137.193 46.7699 137.111 46.6377C137.034 46.501 136.997 46.3529 137.002 46.1934C136.997 46.0384 137.034 45.8949 137.111 45.7627C137.193 45.626 137.3 45.5189 137.433 45.4414C137.569 45.3594 137.717 45.3184 137.877 45.3184C138.032 45.3184 138.175 45.3571 138.308 45.4346C138.444 45.512 138.551 45.6169 138.629 45.749C138.711 45.8812 138.752 46.0247 138.752 46.1797C138.752 46.4258 138.668 46.6377 138.499 46.8154C138.33 46.9886 138.123 47.0775 137.877 47.082ZM143.469 47.1367C142.74 47.1367 142.115 46.9385 141.596 46.542C141.081 46.1455 140.687 45.5667 140.413 44.8057C140.144 44.0446 140.01 43.1263 140.01 42.0508C140.01 40.9889 140.144 40.0775 140.413 39.3164C140.687 38.5508 141.083 37.9674 141.603 37.5664C142.122 37.1654 142.744 36.9648 143.469 36.9648C144.189 36.9648 144.809 37.1654 145.328 37.5664C145.848 37.9674 146.244 38.5508 146.518 39.3164C146.791 40.0775 146.928 40.9889 146.928 42.0508C146.928 43.1263 146.791 44.0446 146.518 44.8057C146.249 45.5667 145.854 46.1455 145.335 46.542C144.82 46.9385 144.198 47.1367 143.469 47.1367ZM141.199 42.0508C141.199 42.8984 141.288 43.6208 141.466 44.2178C141.648 44.8148 141.908 45.2682 142.245 45.5781C142.582 45.888 142.99 46.043 143.469 46.043C143.943 46.043 144.348 45.888 144.686 45.5781C145.027 45.2682 145.285 44.8148 145.458 44.2178C145.636 43.6208 145.725 42.8984 145.725 42.0508C145.725 41.2031 145.636 40.4785 145.458 39.877C145.28 39.2754 145.023 38.8174 144.686 38.5029C144.348 38.1885 143.943 38.0312 143.469 38.0312C142.995 38.0312 142.589 38.1885 142.252 38.5029C141.915 38.8174 141.655 39.2754 141.473 39.877C141.29 40.4785 141.199 41.2031 141.199 42.0508ZM148.322 43.9648L152.779 37.1016H154.297V43.8965H155.678V44.9766H154.297V47H153.121V44.9766H148.322V43.9648ZM153.121 43.8965V38.6602H152.998L149.648 43.8145V43.8965H153.121ZM157.701 47.082C157.542 47.082 157.394 47.041 157.257 46.959C157.125 46.877 157.018 46.7699 156.936 46.6377C156.858 46.501 156.822 46.3529 156.826 46.1934C156.822 46.0384 156.858 45.8949 156.936 45.7627C157.018 45.626 157.125 45.5189 157.257 45.4414C157.394 45.3594 157.542 45.3184 157.701 45.3184C157.856 45.3184 158 45.3571 158.132 45.4346C158.269 45.512 158.376 45.6169 158.453 45.749C158.535 45.8812 158.576 46.0247 158.576 46.1797C158.576 46.4258 158.492 46.6377 158.323 46.8154C158.155 46.9886 157.947 47.0775 157.701 47.082ZM160.395 46.0977L163.771 42.543C164.214 42.069 164.551 41.6885 164.783 41.4014C165.02 41.1097 165.2 40.8294 165.323 40.5605C165.446 40.2917 165.508 40.0091 165.508 39.7129C165.508 39.3802 165.421 39.0885 165.248 38.8379C165.075 38.5827 164.838 38.3844 164.537 38.2432C164.241 38.1019 163.908 38.0312 163.539 38.0312C163.152 38.0312 162.812 38.111 162.521 38.2705C162.229 38.4255 162.003 38.6419 161.844 38.9199C161.689 39.1979 161.611 39.5215 161.611 39.8906H160.449C160.445 39.3164 160.577 38.8083 160.846 38.3662C161.119 37.9242 161.495 37.5801 161.974 37.334C162.452 37.0879 162.988 36.9648 163.58 36.9648C164.168 36.9648 164.694 37.0856 165.159 37.3271C165.629 37.5687 165.995 37.8991 166.26 38.3184C166.524 38.7376 166.656 39.2025 166.656 39.7129C166.652 40.0911 166.581 40.4535 166.444 40.7998C166.312 41.1416 166.084 41.5221 165.761 41.9414C165.437 42.3607 164.979 42.8757 164.387 43.4863L162.117 45.8242V45.9062H166.834V47H160.408L160.395 46.0977ZM168.16 43.9648L172.617 37.1016H174.135V43.8965H175.516V44.9766H174.135V47H172.959V44.9766H168.16V43.9648ZM172.959 43.8965V38.6602H172.836L169.486 43.8145V43.8965H172.959Z" fill="#222222"/>
<rect x="208.5" y="35.5" width="15" height="14" rx="1.5" stroke="#333333"/>
<rect x="212" y="38" width="4" height="1" rx="0.5" transform="rotate(-90 212 38)" fill="#333333"/>
<rect x="219" y="38" width="4" height="1" rx="0.5" transform="rotate(-90 219 38)" fill="#333333"/>
<rect x="209" y="40" width="14" height="1" fill="#333333"/>
<rect x="247.5" y="22.5" width="145" height="39" rx="3.5" fill="white" stroke="#E6E6E6"/>
<path d="M259.916 46.0977L263.293 42.543C263.735 42.069 264.072 41.6885 264.305 41.4014C264.542 41.1097 264.722 40.8294 264.845 40.5605C264.968 40.2917 265.029 40.0091 265.029 39.7129C265.029 39.3802 264.943 39.0885 264.77 38.8379C264.596 38.5827 264.359 38.3844 264.059 38.2432C263.762 38.1019 263.43 38.0312 263.061 38.0312C262.673 38.0312 262.334 38.111 262.042 38.2705C261.75 38.4255 261.525 38.6419 261.365 38.9199C261.21 39.1979 261.133 39.5215 261.133 39.8906H259.971C259.966 39.3164 260.098 38.8083 260.367 38.3662C260.641 37.9242 261.017 37.5801 261.495 37.334C261.974 37.0879 262.509 36.9648 263.102 36.9648C263.689 36.9648 264.216 37.0856 264.681 37.3271C265.15 37.5687 265.517 37.8991 265.781 38.3184C266.046 38.7376 266.178 39.2025 266.178 39.7129C266.173 40.0911 266.103 40.4535 265.966 40.7998C265.834 41.1416 265.606 41.5221 265.282 41.9414C264.959 42.3607 264.501 42.8757 263.908 43.4863L261.639 45.8242V45.9062H266.355V47H259.93L259.916 46.0977ZM271.387 47.1367C270.658 47.1367 270.033 46.9385 269.514 46.542C268.999 46.1455 268.604 45.5667 268.331 44.8057C268.062 44.0446 267.928 43.1263 267.928 42.0508C267.928 40.9889 268.062 40.0775 268.331 39.3164C268.604 38.5508 269.001 37.9674 269.521 37.5664C270.04 37.1654 270.662 36.9648 271.387 36.9648C272.107 36.9648 272.727 37.1654 273.246 37.5664C273.766 37.9674 274.162 38.5508 274.436 39.3164C274.709 40.0775 274.846 40.9889 274.846 42.0508C274.846 43.1263 274.709 44.0446 274.436 44.8057C274.167 45.5667 273.772 46.1455 273.253 46.542C272.738 46.9385 272.116 47.1367 271.387 47.1367ZM269.117 42.0508C269.117 42.8984 269.206 43.6208 269.384 44.2178C269.566 44.8148 269.826 45.2682 270.163 45.5781C270.5 45.888 270.908 46.043 271.387 46.043C271.861 46.043 272.266 45.888 272.604 45.5781C272.945 45.2682 273.203 44.8148 273.376 44.2178C273.554 43.6208 273.643 42.8984 273.643 42.0508C273.643 41.2031 273.554 40.4785 273.376 39.877C273.198 39.2754 272.941 38.8174 272.604 38.5029C272.266 38.1885 271.861 38.0312 271.387 38.0312C270.913 38.0312 270.507 38.1885 270.17 38.5029C269.833 38.8174 269.573 39.2754 269.391 39.877C269.208 40.4785 269.117 41.2031 269.117 42.0508ZM276.473 46.0977L279.85 42.543C280.292 42.069 280.629 41.6885 280.861 41.4014C281.098 41.1097 281.278 40.8294 281.401 40.5605C281.524 40.2917 281.586 40.0091 281.586 39.7129C281.586 39.3802 281.499 39.0885 281.326 38.8379C281.153 38.5827 280.916 38.3844 280.615 38.2432C280.319 38.1019 279.986 38.0312 279.617 38.0312C279.23 38.0312 278.89 38.111 278.599 38.2705C278.307 38.4255 278.081 38.6419 277.922 38.9199C277.767 39.1979 277.689 39.5215 277.689 39.8906H276.527C276.523 39.3164 276.655 38.8083 276.924 38.3662C277.197 37.9242 277.573 37.5801 278.052 37.334C278.53 37.0879 279.066 36.9648 279.658 36.9648C280.246 36.9648 280.772 37.0856 281.237 37.3271C281.707 37.5687 282.074 37.8991 282.338 38.3184C282.602 38.7376 282.734 39.2025 282.734 39.7129C282.73 40.0911 282.659 40.4535 282.522 40.7998C282.39 41.1416 282.162 41.5221 281.839 41.9414C281.515 42.3607 281.057 42.8757 280.465 43.4863L278.195 45.8242V45.9062H282.912V47H276.486L276.473 46.0977ZM288.121 47.1367C287.469 47.1367 286.886 47.0273 286.371 46.8086C285.856 46.5898 285.448 46.2822 285.147 45.8857C284.851 45.4847 284.694 45.0267 284.676 44.5117H285.92C285.943 44.8216 286.052 45.0928 286.248 45.3252C286.444 45.5531 286.704 45.7308 287.027 45.8584C287.351 45.9814 287.711 46.043 288.107 46.043C288.54 46.043 288.928 45.9701 289.27 45.8242C289.611 45.6784 289.878 45.4733 290.069 45.209C290.265 44.9447 290.363 44.6439 290.363 44.3066C290.359 43.9466 290.263 43.6276 290.076 43.3496C289.889 43.0716 289.614 42.8551 289.249 42.7002C288.889 42.5407 288.458 42.4609 287.957 42.4609H287.15V41.3809H287.957C288.354 41.3809 288.707 41.3102 289.017 41.1689C289.326 41.0277 289.566 40.8294 289.734 40.5742C289.908 40.3145 289.994 40.0182 289.994 39.6855C289.994 39.3574 289.919 39.0703 289.769 38.8242C289.618 38.5736 289.404 38.3799 289.126 38.2432C288.848 38.1019 288.522 38.0312 288.148 38.0312C287.793 38.0358 287.458 38.1019 287.144 38.2295C286.834 38.3525 286.581 38.5326 286.385 38.7695C286.193 39.002 286.089 39.2754 286.07 39.5898H284.881C284.899 39.0794 285.056 38.626 285.353 38.2295C285.653 37.8285 286.05 37.5186 286.542 37.2998C287.039 37.0765 287.579 36.9648 288.162 36.9648C288.773 36.9648 289.306 37.0856 289.762 37.3271C290.222 37.5687 290.575 37.8923 290.821 38.2979C291.067 38.7035 291.188 39.1432 291.184 39.6172C291.188 40.1732 291.04 40.6494 290.739 41.0459C290.438 41.4378 290.026 41.709 289.502 41.8594V41.9277C289.926 41.9915 290.293 42.1328 290.603 42.3516C290.917 42.5658 291.156 42.8415 291.32 43.1787C291.484 43.5114 291.566 43.8874 291.566 44.3066C291.566 44.8398 291.416 45.3229 291.115 45.7559C290.819 46.1842 290.409 46.5215 289.885 46.7676C289.361 47.0137 288.773 47.1367 288.121 47.1367ZM293.877 47.082C293.717 47.082 293.569 47.041 293.433 46.959C293.3 46.877 293.193 46.7699 293.111 46.6377C293.034 46.501 292.997 46.3529 293.002 46.1934C292.997 46.0384 293.034 45.8949 293.111 45.7627C293.193 45.626 293.3 45.5189 293.433 45.4414C293.569 45.3594 293.717 45.3184 293.877 45.3184C294.032 45.3184 294.175 45.3571 294.308 45.4346C294.444 45.512 294.551 45.6169 294.629 45.749C294.711 45.8812 294.752 46.0247 294.752 46.1797C294.752 46.4258 294.668 46.6377 294.499 46.8154C294.33 46.9886 294.123 47.0775 293.877 47.082ZM299.469 47.1367C298.74 47.1367 298.115 46.9385 297.596 46.542C297.081 46.1455 296.687 45.5667 296.413 44.8057C296.144 44.0446 296.01 43.1263 296.01 42.0508C296.01 40.9889 296.144 40.0775 296.413 39.3164C296.687 38.5508 297.083 37.9674 297.603 37.5664C298.122 37.1654 298.744 36.9648 299.469 36.9648C300.189 36.9648 300.809 37.1654 301.328 37.5664C301.848 37.9674 302.244 38.5508 302.518 39.3164C302.791 40.0775 302.928 40.9889 302.928 42.0508C302.928 43.1263 302.791 44.0446 302.518 44.8057C302.249 45.5667 301.854 46.1455 301.335 46.542C300.82 46.9385 300.198 47.1367 299.469 47.1367ZM297.199 42.0508C297.199 42.8984 297.288 43.6208 297.466 44.2178C297.648 44.8148 297.908 45.2682 298.245 45.5781C298.582 45.888 298.99 46.043 299.469 46.043C299.943 46.043 300.348 45.888 300.686 45.5781C301.027 45.2682 301.285 44.8148 301.458 44.2178C301.636 43.6208 301.725 42.8984 301.725 42.0508C301.725 41.2031 301.636 40.4785 301.458 39.877C301.28 39.2754 301.023 38.8174 300.686 38.5029C300.348 38.1885 299.943 38.0312 299.469 38.0312C298.995 38.0312 298.589 38.1885 298.252 38.5029C297.915 38.8174 297.655 39.2754 297.473 39.877C297.29 40.4785 297.199 41.2031 297.199 42.0508ZM304.322 43.9648L308.779 37.1016H310.297V43.8965H311.678V44.9766H310.297V47H309.121V44.9766H304.322V43.9648ZM309.121 43.8965V38.6602H308.998L305.648 43.8145V43.8965H309.121ZM313.701 47.082C313.542 47.082 313.394 47.041 313.257 46.959C313.125 46.877 313.018 46.7699 312.936 46.6377C312.858 46.501 312.822 46.3529 312.826 46.1934C312.822 46.0384 312.858 45.8949 312.936 45.7627C313.018 45.626 313.125 45.5189 313.257 45.4414C313.394 45.3594 313.542 45.3184 313.701 45.3184C313.856 45.3184 314 45.3571 314.132 45.4346C314.269 45.512 314.376 45.6169 314.453 45.749C314.535 45.8812 314.576 46.0247 314.576 46.1797C314.576 46.4258 314.492 46.6377 314.323 46.8154C314.155 46.9886 313.947 47.0775 313.701 47.082ZM316.395 46.0977L319.771 42.543C320.214 42.069 320.551 41.6885 320.783 41.4014C321.02 41.1097 321.2 40.8294 321.323 40.5605C321.446 40.2917 321.508 40.0091 321.508 39.7129C321.508 39.3802 321.421 39.0885 321.248 38.8379C321.075 38.5827 320.838 38.3844 320.537 38.2432C320.241 38.1019 319.908 38.0312 319.539 38.0312C319.152 38.0312 318.812 38.111 318.521 38.2705C318.229 38.4255 318.003 38.6419 317.844 38.9199C317.689 39.1979 317.611 39.5215 317.611 39.8906H316.449C316.445 39.3164 316.577 38.8083 316.846 38.3662C317.119 37.9242 317.495 37.5801 317.974 37.334C318.452 37.0879 318.988 36.9648 319.58 36.9648C320.168 36.9648 320.694 37.0856 321.159 37.3271C321.629 37.5687 321.995 37.8991 322.26 38.3184C322.524 38.7376 322.656 39.2025 322.656 39.7129C322.652 40.0911 322.581 40.4535 322.444 40.7998C322.312 41.1416 322.084 41.5221 321.761 41.9414C321.437 42.3607 320.979 42.8757 320.387 43.4863L318.117 45.8242V45.9062H322.834V47H316.408L316.395 46.0977ZM328.111 47.1367C327.469 47.1367 326.874 46.9932 326.327 46.7061C325.785 46.4144 325.338 45.9199 324.987 45.2227C324.636 44.5208 324.461 43.5911 324.461 42.4336C324.461 41.276 324.611 40.2894 324.912 39.4736C325.217 38.6533 325.65 38.0312 326.211 37.6074C326.776 37.179 327.446 36.9648 328.221 36.9648C328.79 36.9648 329.303 37.0765 329.759 37.2998C330.215 37.5186 330.586 37.8262 330.873 38.2227C331.165 38.6191 331.352 39.0749 331.434 39.5898H330.217C330.098 39.1296 329.868 38.7604 329.526 38.4824C329.185 38.1999 328.749 38.0586 328.221 38.0586C327.678 38.0586 327.211 38.209 326.819 38.5098C326.432 38.806 326.136 39.2367 325.931 39.8018C325.726 40.3669 325.623 41.0436 325.623 41.832H325.746C326.033 41.4173 326.396 41.096 326.833 40.8682C327.275 40.6357 327.76 40.5195 328.289 40.5195C328.872 40.5195 329.41 40.6608 329.902 40.9434C330.395 41.2259 330.786 41.6178 331.078 42.1191C331.37 42.6159 331.516 43.1764 331.516 43.8008C331.516 44.4206 331.374 44.9834 331.092 45.4893C330.809 45.9951 330.408 46.3962 329.889 46.6924C329.374 46.9886 328.781 47.1367 328.111 47.1367ZM325.787 43.8281C325.787 44.2155 325.885 44.5801 326.081 44.9219C326.282 45.2637 326.555 45.5394 326.901 45.749C327.252 45.9541 327.642 46.0566 328.07 46.0566C328.49 46.0566 328.87 45.9564 329.212 45.7559C329.554 45.5508 329.825 45.2773 330.025 44.9355C330.226 44.5938 330.326 44.2201 330.326 43.8145C330.326 43.4134 330.228 43.0443 330.032 42.707C329.841 42.3698 329.574 42.1009 329.232 41.9004C328.895 41.6999 328.517 41.5996 328.098 41.5996C327.674 41.5996 327.286 41.7044 326.936 41.9141C326.585 42.1191 326.307 42.3926 326.102 42.7344C325.896 43.0762 325.792 43.4408 325.787 43.8281Z" fill="#222222"/>
<rect x="364.5" y="35.5" width="15" height="14" rx="1.5" stroke="#333333"/>
<rect x="368" y="38" width="4" height="1" rx="0.5" transform="rotate(-90 368 38)" fill="#333333"/>
<rect x="375" y="38" width="4" height="1" rx="0.5" transform="rotate(-90 375 38)" fill="#333333"/>
<rect x="365" y="40" width="14" height="1" fill="#333333"/>
<path d="M56.541 48.1074H55.4609V35.9531H56.541V48.1074ZM46.6426 44.9492C48.265 44.179 49.5068 43.222 50.3682 42.0781C51.234 40.9342 51.7285 39.6263 51.8516 38.1543H47.2031V37.2793H52.9453C52.9362 39.1113 52.4714 40.7588 51.5508 42.2217C50.6302 43.6846 49.1901 44.8854 47.2305 45.8242L46.6426 44.9492ZM68.0938 39.6582H69.9258V40.5605H68.0938V44.8535H67.0137V35.9531H68.0938V39.6582ZM58.6055 42.584C59.5807 42.2786 60.4329 41.889 61.1621 41.415C61.8913 40.9411 62.4678 40.3965 62.8916 39.7812C63.32 39.166 63.5706 38.5052 63.6436 37.7988H59.1113V36.8965H64.8125C64.8125 37.9219 64.5801 38.863 64.1152 39.7197C63.6504 40.5765 62.9873 41.3193 62.126 41.9482C61.2646 42.5771 60.2461 43.0762 59.0703 43.4453L58.6055 42.584ZM60.4785 43.9512H61.5449V46.9453H68.6543V47.8477H60.4785V43.9512Z" fill="#222222"/>
<circle cx="425" cy="42" r="2" fill="#666666"/>
<rect x="506.5" y="22.5" width="145" height="39" rx="3.5" fill="white" stroke="#E6E6E6"/>
<path d="M522.648 38.25C522.648 38.8105 522.774 39.3529 523.024 39.877C523.28 40.3965 523.635 40.859 524.091 41.2646C524.547 41.6657 525.068 41.9733 525.656 42.1875L525.055 43.0215C524.385 42.7572 523.795 42.3721 523.284 41.8662C522.778 41.3604 522.396 40.777 522.136 40.1162C521.881 40.8499 521.486 41.4971 520.953 42.0576C520.42 42.6136 519.796 43.0352 519.08 43.3223L518.506 42.4473C519.107 42.224 519.641 41.8981 520.105 41.4697C520.575 41.0413 520.939 40.5446 521.199 39.9795C521.464 39.4144 521.596 38.8242 521.596 38.209V36.7051H522.648V38.25ZM520.707 44.0332H521.787V46.9453H528.842V47.8477H520.707V44.0332ZM524.781 38.8242H527.488V35.9668H528.568V45.0723H527.488V39.7266H524.781V38.8242ZM535.855 37.7441H532.164V39.2617H535.719V40.1094H532.164V41.791C533.085 41.7865 533.853 41.7614 534.468 41.7158C535.088 41.6702 535.714 41.5859 536.348 41.4629L536.457 42.3516C535.778 42.4837 535.113 42.5726 534.461 42.6182C533.809 42.6637 532.957 42.6888 531.904 42.6934H531.139V36.8418H535.855V37.7441ZM532.725 43.9648H540.914V48.1074H539.861V44.8398H532.725V43.9648ZM537.182 36.1992H538.18V39.1387H539.889V35.9668H540.914V43.3359H539.889V40.0137H538.18V43.2539H537.182V36.1992Z" fill="#999999"/>
<path d="M632 41H640L636 46L632 41Z" fill="#999999"/>
<rect x="662.5" y="22.5" width="236" height="39" rx="3.5" fill="white" stroke="#E6E6E6"/>
<path d="M448.621 46.5488H437.492V45.6465H442.51V42.6934H443.59V45.6465H448.621V46.5488ZM438.039 42.2559C438.736 42.1374 439.429 41.8822 440.117 41.4902C440.81 41.0938 441.377 40.613 441.819 40.0479C442.261 39.4782 442.482 38.8835 442.482 38.2637V37.9629H438.408V37.0605H447.664V37.9629H443.59V38.2637C443.59 38.8835 443.813 39.4759 444.26 40.041C444.706 40.6016 445.276 41.0755 445.969 41.4629C446.666 41.8503 447.372 42.1009 448.088 42.2148L447.65 43.0625C447.017 42.9349 446.395 42.723 445.784 42.4268C445.178 42.126 444.633 41.7546 444.15 41.3125C443.667 40.8659 443.3 40.3714 443.05 39.8291C442.799 40.376 442.432 40.8773 441.949 41.333C441.471 41.7842 440.928 42.1624 440.322 42.4678C439.721 42.7731 439.11 42.9896 438.49 43.1172L438.039 42.2559ZM459.559 48.1074H458.492V35.9531H459.559V48.1074ZM449.66 44.8672C451.169 44.8581 452.322 44.8398 453.119 44.8125V43.4863C452.632 43.4362 452.208 43.3154 451.848 43.124C451.488 42.9281 451.21 42.6729 451.014 42.3584C450.818 42.0439 450.722 41.6862 450.727 41.2852C450.722 40.834 450.84 40.4375 451.082 40.0957C451.324 39.7539 451.665 39.4919 452.107 39.3096C452.549 39.1227 453.06 39.0293 453.639 39.0293C454.222 39.0293 454.735 39.1227 455.177 39.3096C455.623 39.4919 455.967 39.7539 456.209 40.0957C456.455 40.4375 456.578 40.834 456.578 41.2852C456.578 41.6816 456.48 42.0371 456.284 42.3516C456.093 42.6615 455.817 42.9144 455.457 43.1104C455.097 43.3063 454.678 43.4316 454.199 43.4863V44.7715C455.571 44.7077 456.733 44.612 457.686 44.4844L457.768 45.3047C456.56 45.5007 455.304 45.6305 454.001 45.6943C452.698 45.7536 451.305 45.7832 449.824 45.7832L449.66 44.8672ZM449.92 37.457H453.119V35.9668H454.199V37.457H457.371V38.332H449.92V37.457ZM451.725 41.2852C451.725 41.5632 451.804 41.807 451.964 42.0166C452.123 42.2262 452.349 42.388 452.641 42.502C452.932 42.6159 453.265 42.6706 453.639 42.666C454.012 42.6706 454.345 42.6159 454.637 42.502C454.928 42.388 455.154 42.2262 455.313 42.0166C455.473 41.807 455.553 41.5632 455.553 41.2852C455.553 41.0072 455.473 40.7611 455.313 40.5469C455.154 40.3281 454.928 40.1595 454.637 40.041C454.345 39.9225 454.012 39.8633 453.639 39.8633C453.265 39.8633 452.932 39.9225 452.641 40.041C452.354 40.1595 452.128 40.3281 451.964 40.5469C451.804 40.7611 451.725 41.0072 451.725 41.2852ZM472.82 46.5488H461.691V45.6465H466.709V42.6934H467.789V45.6465H472.82V46.5488ZM462.238 42.2559C462.936 42.1374 463.628 41.8822 464.316 41.4902C465.009 41.0938 465.576 40.613 466.019 40.0479C466.461 39.4782 466.682 38.8835 466.682 38.2637V37.9629H462.607V37.0605H471.863V37.9629H467.789V38.2637C467.789 38.8835 468.012 39.4759 468.459 40.041C468.906 40.6016 469.475 41.0755 470.168 41.4629C470.865 41.8503 471.572 42.1009 472.287 42.2148L471.85 43.0625C471.216 42.9349 470.594 42.723 469.983 42.4268C469.377 42.126 468.833 41.7546 468.35 41.3125C467.867 40.8659 467.5 40.3714 467.249 39.8291C466.998 40.376 466.632 40.8773 466.148 41.333C465.67 41.7842 465.128 42.1624 464.521 42.4678C463.92 42.7731 463.309 42.9896 462.689 43.1172L462.238 42.2559ZM483.867 44.9492H482.787V40.6152H480.094V39.7129H482.787V35.9668H483.867V44.9492ZM473.982 42.666C474.921 42.3561 475.751 41.9596 476.471 41.4766C477.191 40.9935 477.767 40.4398 478.2 39.8154C478.633 39.1911 478.891 38.5189 478.973 37.7988H474.598V36.8965H480.148C480.144 37.9219 479.909 38.8675 479.444 39.7334C478.979 40.5993 478.319 41.3535 477.462 41.9961C476.61 42.6387 475.605 43.1491 474.447 43.5273L473.982 42.666ZM476.129 44.0332H477.223V46.9453H484.182V47.8477H476.129V44.0332Z" fill="#222222"/>
<rect x="911" y="22" width="81" height="40" rx="6" fill="#3583F9"/>
<path d="M951.158 46.8086H939.77V45.4004H944.582V42.625H946.332V45.4004H951.158V46.8086ZM940.234 41.791C941.068 41.6543 941.8 41.4059 942.429 41.0459C943.058 40.6859 943.55 40.2552 943.905 39.7539C944.261 39.2526 944.464 38.724 944.514 38.168H940.713V36.7598H950.16V38.168H946.373C946.419 38.724 946.619 39.2503 946.975 39.7471C947.335 40.2393 947.836 40.6608 948.479 41.0117C949.121 41.3581 949.873 41.5951 950.734 41.7227L950.051 43.1035C948.971 42.9121 948.034 42.5635 947.241 42.0576C946.453 41.5518 945.856 40.9274 945.45 40.1846C945.054 40.9411 944.464 41.5814 943.68 42.1055C942.9 42.625 941.98 42.9805 940.918 43.1719L940.234 41.791ZM962.328 48.2578H960.592V35.8164H962.328V48.2578ZM951.924 44.7441C952.206 44.7441 952.421 44.7419 952.566 44.7373C953.464 44.7373 954.307 44.7282 955.096 44.71V43.6572C954.645 43.5752 954.248 43.4294 953.906 43.2197C953.569 43.0101 953.309 42.7503 953.127 42.4404C952.945 42.126 952.854 41.7773 952.854 41.3945C952.854 40.9388 952.983 40.5332 953.243 40.1777C953.503 39.8223 953.865 39.5465 954.33 39.3506C954.799 39.1546 955.337 39.0566 955.943 39.0566C956.554 39.0566 957.096 39.1546 957.57 39.3506C958.044 39.5465 958.413 39.8223 958.678 40.1777C958.942 40.5332 959.074 40.9388 959.074 41.3945C959.074 41.7773 958.981 42.126 958.794 42.4404C958.612 42.7503 958.35 43.0101 958.008 43.2197C957.671 43.4294 957.274 43.5752 956.818 43.6572V44.6484C957.944 44.5983 958.974 44.5117 959.908 44.3887L960.031 45.6738C958.892 45.8698 957.714 46.002 956.497 46.0703C955.28 46.1341 953.993 46.166 952.635 46.166H952.156L951.924 44.7441ZM952.17 37.1973H955.096V35.8711H956.832V37.1973H959.73V38.5645H952.17V37.1973ZM954.508 41.3945C954.503 41.7135 954.633 41.9619 954.897 42.1396C955.162 42.3174 955.51 42.4062 955.943 42.4062C956.39 42.4062 956.745 42.3197 957.01 42.1465C957.274 41.9688 957.406 41.7181 957.406 41.3945C957.406 41.0801 957.274 40.834 957.01 40.6562C956.745 40.4785 956.39 40.3874 955.943 40.3828C955.51 40.3874 955.162 40.4785 954.897 40.6562C954.633 40.834 954.503 41.0801 954.508 41.3945Z" fill="white"/>
</svg>
