<svg width="36" height="36" viewBox="0 0 36 36" fill="none" xmlns="http://www.w3.org/2000/svg">
<circle cx="18" cy="18" r="18" fill="#61647D"/>
<mask id="mask0_46_1344" style="mask-type:alpha" maskUnits="userSpaceOnUse" x="0" y="0" width="36" height="36">
<circle cx="18" cy="18" r="18" fill="#999999"/>
</mask>
<g mask="url(#mask0_46_1344)">
<path d="M30.5999 31.5C30.5999 35.4764 25.4557 36.9 17.9999 36.9C10.5441 36.9 5.3999 35.4764 5.3999 31.5C5.3999 27.5235 10.5441 24.75 17.9999 24.75C25.4557 24.75 30.5999 27.5235 30.5999 31.5Z" fill="#1C193E"/>
<path d="M25.1998 13.6286C25.1998 18.2157 23.7015 23.4 17.9998 23.4C12.2981 23.4 10.7998 18.2157 10.7998 13.6286C10.7998 9.94144 13.4553 6.29999 17.9998 6.29999C22.5443 6.29999 25.1998 9.94144 25.1998 13.6286Z" fill="#1C193E"/>
<ellipse cx="11.2501" cy="15.75" rx="1.35" ry="2.25" transform="rotate(-15 11.2501 15.75)" fill="#1C193E"/>
<path d="M18 6.3C18.9941 6.3 22.5 4.5 22.5 6.75C22.5 9.00004 21.6941 8.55 20.7 8.55C19.7059 8.55 17.3063 7.94559 17.3063 7.2C17.3063 6.45442 17.0059 6.3 18 6.3Z" fill="#1C193E"/>
<ellipse cx="24.75" cy="15.75" rx="1.35" ry="2.25" transform="rotate(15 24.75 15.75)" fill="#1C193E"/>
<path d="M14.4 20.7H21.6L21.505 20.9851C21.0116 22.4651 21.3968 24.0969 22.5 25.2H13.5C14.6032 24.0969 14.9884 22.4651 14.495 20.9851L14.4 20.7Z" fill="#1C193E"/>
</g>
</svg>
